<svg width="547" height="547" viewBox="0 0 547 547" fill="none" xmlns="http://www.w3.org/2000/svg">
<path d="M346.456 201.568C394.084 249.196 431.495 300.276 453.37 345.12C479.728 399.153 483.466 444.842 464.473 463.834C444.68 483.627 396.206 479.718 338.742 450.855C295.297 429.034 246.711 391.736 201.5 346.524C155.146 300.17 116.55 250.979 94.8332 206.708C67.3532 150.685 64.7762 102.965 84.1902 83.5511C103.028 64.7121 147.438 67.4951 200.884 93.3081C246.043 115.12 298.364 153.475 346.456 201.568Z" stroke="#E91E63" stroke-width="24" stroke-miterlimit="10"/>
<path d="M247.4 175.052C312.452 157.587 375.389 150.698 425.167 154.15C485.141 158.31 526.587 177.897 533.552 203.838C540.811 230.871 513.207 270.911 459.498 306.272C418.89 333.005 362.309 356.46 300.557 373.041C237.245 390.039 175.35 398.899 126.149 395.594C63.8892 391.413 21.2652 369.805 14.1452 343.288C7.23824 317.557 31.8332 280.477 80.8952 247.074C122.348 218.85 181.712 192.688 247.4 175.052Z" stroke="#E91E63" stroke-width="24" stroke-miterlimit="10"/>
<path d="M174.938 247.634C192.295 182.553 217.758 124.584 245.609 83.1843C279.165 33.3023 316.834 7.17629 342.787 14.0983C369.832 21.3103 390.736 65.2213 394.547 129.413C397.43 177.946 389.492 238.679 373.016 300.459C356.124 363.8 332.89 421.848 305.454 462.824C270.738 514.676 230.731 540.812 204.202 533.737C178.459 526.872 158.618 487.045 154.181 427.856C150.432 377.847 157.413 313.351 174.938 247.634Z" stroke="#E91E63" stroke-width="24" stroke-miterlimit="10"/>
<g opacity="0.95">
<path d="M201.273 364.714H374V165.143C374 160.331 372.084 155.716 368.675 152.314C365.265 148.911 360.64 147 355.818 147H201.273V364.714Z" fill="#BDE4FF"/>
<path d="M183.091 373.786L278.545 369.25L374 373.786V391.929L278.545 396.464L183.091 391.929V373.786Z" fill="#F5F5F5"/>
<path fill-rule="evenodd" clip-rule="evenodd" d="M174 160.607C174 156.998 175.437 153.537 177.994 150.985C180.551 148.434 184.02 147 187.636 147H201.273V364.714H374V373.786H192.182C189.771 373.786 187.458 374.741 185.754 376.443C184.049 378.144 183.091 380.451 183.091 382.857C183.091 385.263 184.049 387.57 185.754 389.272C187.458 390.973 189.771 391.929 192.182 391.929H373.227C372.287 394.583 370.545 396.88 368.241 398.505C365.937 400.13 363.185 401.001 360.364 401H187.636C184.02 401 180.551 399.566 177.994 397.015C175.437 394.463 174 391.002 174 387.393V160.607Z" fill="#52BFEE"/>
</g>
<path d="M274 323.369C272.981 323.369 272.119 323.016 271.414 322.311L234.735 286.925C234.343 286.612 233.804 286.103 233.118 285.397C232.432 284.692 231.345 283.409 229.856 281.546C228.367 279.686 227.034 277.775 225.859 275.816C224.684 273.857 223.635 271.486 222.714 268.704C221.794 265.922 221.333 263.218 221.333 260.593C221.333 251.972 223.821 245.232 228.798 240.372C233.775 235.513 240.652 233.083 249.429 233.083C251.859 233.083 254.338 233.504 256.865 234.347C259.392 235.19 261.744 236.326 263.919 237.757C266.093 239.187 267.965 240.529 269.532 241.783C271.099 243.037 272.589 244.369 273.999 245.78C275.41 244.369 276.898 243.037 278.466 241.783C280.034 240.529 281.904 239.187 284.08 237.757C286.255 236.326 288.605 235.19 291.134 234.347C293.661 233.505 296.14 233.083 298.569 233.083C307.347 233.083 314.224 235.513 319.201 240.372C324.179 245.231 326.667 251.972 326.667 260.593C326.667 269.253 322.18 278.07 313.206 287.044L276.587 322.312C275.881 323.017 275.019 323.369 274 323.369Z" fill="#E91E63"/>
</svg>
